<svg width="200" height="48" viewBox="0 0 200 48" xmlns="http://www.w3.org/2000/svg">
  <defs>
    <linearGradient id="rgbNormalGradient" x1="0%" y1="0%" x2="0%" y2="100%">
      <stop offset="0%" style="stop-color:#E1BEE7;stop-opacity:1" />
      <stop offset="50%" style="stop-color:#FFB3E6;stop-opacity:1" />
      <stop offset="100%" style="stop-color:#CE93D8;stop-opacity:1" />
    </linearGradient>

  </defs>
  
  <!-- 主按钮背景 -->
  <rect x="2" y="2" width="196" height="44" rx="22" ry="22" fill="url(#rgbNormalGradient)" stroke="#BA68C8" stroke-width="1"/>
  
  <!-- 装饰彩虹图案 -->
  <g opacity="0.6">
    <!-- 小彩虹1 -->
    <g transform="translate(50,24)">
      <path d="M -10,0 Q -5,-8 0,0" stroke="#FF5722" stroke-width="1.5" fill="none" opacity="0.8"/>
      <path d="M -9,1 Q -4.5,-6 1,1" stroke="#FF9800" stroke-width="1.5" fill="none" opacity="0.8"/>
      <path d="M -8,2 Q -4,-4 2,2" stroke="#FFC107" stroke-width="1.5" fill="none" opacity="0.8"/>
      <path d="M -7,3 Q -3.5,-2 3,3" stroke="#4CAF50" stroke-width="1.5" fill="none" opacity="0.8"/>
      <path d="M -6,4 Q -3,0 4,4" stroke="#2196F3" stroke-width="1.5" fill="none" opacity="0.8"/>
      <path d="M -5,5 Q -2.5,2 5,5" stroke="#9C27B0" stroke-width="1.5" fill="none" opacity="0.8"/>

    </g>
    
    <!-- 小彩虹2 -->
    <g transform="translate(150,24)">
      <path d="M -8,0 Q -4,-6 0,0" stroke="#FF5722" stroke-width="1" fill="none" opacity="0.7"/>
      <path d="M -7,1 Q -3.5,-4 1,1" stroke="#FF9800" stroke-width="1" fill="none" opacity="0.7"/>
      <path d="M -6,2 Q -3,-2 2,2" stroke="#FFC107" stroke-width="1" fill="none" opacity="0.7"/>
      <path d="M -5,3 Q -2.5,0 3,3" stroke="#4CAF50" stroke-width="1" fill="none" opacity="0.7"/>
      <path d="M -4,4 Q -2,2 4,4" stroke="#2196F3" stroke-width="1" fill="none" opacity="0.7"/>

    </g>
  </g>
  
  <!-- RGB调色板图案 -->
  <g transform="translate(100,24)">
    <!-- 调色板背景 -->
    <ellipse cx="0" cy="0" rx="14" ry="10" fill="#FFF" opacity="0.9"/>
    <ellipse cx="0" cy="0" rx="12" ry="8" fill="#F5F5F5" opacity="0.8"/>
    
    <!-- RGB颜色圆点 -->
    <circle cx="-6" cy="-3" r="2.5" fill="#F44336" opacity="0.8"/>
    <circle cx="6" cy="-3" r="2.5" fill="#4CAF50" opacity="0.8"/>
    <circle cx="0" cy="4" r="2.5" fill="#2196F3" opacity="0.8"/>
    
    <!-- 混合颜色小点 -->
    <circle cx="-3" cy="0" r="1.5" fill="#FF9800" opacity="0.7"/>
    <circle cx="3" cy="0" r="1.5" fill="#9C27B0" opacity="0.7"/>
    <circle cx="0" cy="-1" r="1" fill="#FFD700" opacity="0.8"/>
    
    <!-- 画笔 -->
    <g transform="translate(8,6)">
      <line x1="0" y1="0" x2="4" y2="4" stroke="#8D6E63" stroke-width="1.5" opacity="0.8"/>
      <circle cx="0" cy="0" r="1" fill="#FF69B4" opacity="0.9"/>
    </g>
  </g>
  
  <!-- 飘动的彩色星星 -->
  <g opacity="0.7">
    <g transform="translate(70,15)">
      <polygon points="0,-3 1,-1 3,0 1,1 0,3 -1,1 -3,0 -1,-1" fill="#FF69B4" opacity="0.8"/>
    </g>
    
    <g transform="translate(130,35)">
      <polygon points="0,-2 0.7,-0.7 2,0 0.7,0.7 0,2 -0.7,0.7 -2,0 -0.7,-0.7" fill="#00BCD4" opacity="0.8"/>
    </g>
    
    <g transform="translate(40,30)">
      <polygon points="0,-2.5 0.8,-0.8 2.5,0 0.8,0.8 0,2.5 -0.8,0.8 -2.5,0 -0.8,-0.8" fill="#FFD700" opacity="0.8"/>
    </g>
  </g>
  
  <!-- 飘动的彩色泡泡 -->
  <g opacity="0.6">
    <circle cx="160" cy="15" r="2" fill="#E91E63" opacity="0.7"/>
    
    <circle cx="30" cy="35" r="1.5" fill="#3F51B5" opacity="0.7"/>
    
    <circle cx="170" cy="35" r="1.8" fill="#FF5722" opacity="0.7"/>
  </g>
</svg>