<svg width="400" height="600" viewBox="0 0 400 600" xmlns="http://www.w3.org/2000/svg">
  <defs>
    <!-- 渐变背景 -->
    <linearGradient id="backgroundGradient" x1="0%" y1="0%" x2="100%" y2="100%">
      <stop offset="0%" style="stop-color:#87CEEB;stop-opacity:1" />
      <stop offset="50%" style="stop-color:#98FB98;stop-opacity:1" />
      <stop offset="100%" style="stop-color:#FFE4E1;stop-opacity:1" />
    </linearGradient>
    
    <!-- 云朵渐变 -->
    <radialGradient id="cloudGradient" cx="50%" cy="50%" r="50%">
      <stop offset="0%" style="stop-color:#FFFFFF;stop-opacity:0.9" />
      <stop offset="100%" style="stop-color:#F0F8FF;stop-opacity:0.7" />
    </radialGradient>
    
    <!-- 星星渐变 -->
    <radialGradient id="starGradient" cx="50%" cy="50%" r="50%">
      <stop offset="0%" style="stop-color:#FFD700;stop-opacity:1" />
      <stop offset="100%" style="stop-color:#FFA500;stop-opacity:0.8" />
    </radialGradient>
  </defs>
  
  <!-- 背景 -->
  <rect width="400" height="600" fill="url(#backgroundGradient)"/>
  
  <!-- 动画云朵 -->
  <g>
    <ellipse cx="80" cy="100" rx="25" ry="15" fill="url(#cloudGradient)"/>
    <ellipse cx="60" cy="95" rx="20" ry="12" fill="url(#cloudGradient)"/>
    <ellipse cx="100" cy="95" rx="18" ry="10" fill="url(#cloudGradient)"/>
  </g>
  
  <g>
    <ellipse cx="320" cy="150" rx="30" ry="18" fill="url(#cloudGradient)"/>
    <ellipse cx="295" cy="145" rx="25" ry="15" fill="url(#cloudGradient)"/>
    <ellipse cx="345" cy="145" rx="22" ry="13" fill="url(#cloudGradient)"/>
  </g>
  
  <!-- 动画星星 -->
  <g>
    <polygon points="50,50 52,58 60,58 54,63 56,71 50,66 44,71 46,63 40,58 48,58" fill="url(#starGradient)" opacity="0.7"/>
    
    <polygon points="350,80 352,88 360,88 354,93 356,101 350,96 344,101 346,93 340,88 348,88" fill="url(#starGradient)" opacity="0.6"/>
    
    <polygon points="150,40 151,46 157,46 152,50 154,56 150,52 146,56 148,50 143,46 149,46" fill="url(#starGradient)" opacity="0.7"/>
  </g>
  
  <!-- 可爱的小房子 -->
  <g transform="translate(50, 450)">
    <!-- 房子主体 -->
    <rect x="0" y="20" width="40" height="30" fill="#FFB6C1" stroke="#FF69B4" stroke-width="1"/>
    <!-- 屋顶 -->
    <polygon points="-5,20 20,5 45,20" fill="#FF6347" stroke="#DC143C" stroke-width="1"/>
    <!-- 门 -->
    <rect x="15" y="35" width="10" height="15" fill="#8B4513"/>
    <!-- 窗户 -->
    <rect x="5" y="28" width="8" height="8" fill="#87CEEB" stroke="#4682B4" stroke-width="0.5"/>
    <rect x="27" y="28" width="8" height="8" fill="#87CEEB" stroke="#4682B4" stroke-width="0.5"/>
    <!-- 窗户十字 -->
    <line x1="9" y1="28" x2="9" y2="36" stroke="#4682B4" stroke-width="0.5"/>
    <line x1="5" y1="32" x2="13" y2="32" stroke="#4682B4" stroke-width="0.5"/>
    <line x1="31" y1="28" x2="31" y2="36" stroke="#4682B4" stroke-width="0.5"/>
    <line x1="27" y1="32" x2="35" y2="32" stroke="#4682B4" stroke-width="0.5"/>
    <!-- 烟囱 -->
    <rect x="30" y="8" width="4" height="12" fill="#696969"/>
    <!-- 烟雾 -->
    <circle cx="32" cy="5" r="2" fill="#D3D3D3" opacity="0.5"/>
  </g>
  
  <!-- 另一个小房子 -->
  <g transform="translate(300, 480)">
    <!-- 房子主体 -->
    <rect x="0" y="15" width="35" height="25" fill="#98FB98" stroke="#32CD32" stroke-width="1"/>
    <!-- 屋顶 -->
    <polygon points="-3,15 17.5,3 38,15" fill="#FF4500" stroke="#B22222" stroke-width="1"/>
    <!-- 门 -->
    <rect x="13" y="28" width="9" height="12" fill="#8B4513"/>
    <!-- 窗户 -->
    <rect x="4" y="22" width="7" height="7" fill="#87CEEB" stroke="#4682B4" stroke-width="0.5"/>
    <rect x="24" y="22" width="7" height="7" fill="#87CEEB" stroke="#4682B4" stroke-width="0.5"/>
  </g>
  
  <!-- 飞行的小鸟 -->
  <g>
    <path d="M 100 200 Q 105 195 110 200 Q 105 205 100 200" fill="#FF69B4"/>
    <circle cx="102" cy="200" r="1.5" fill="#000"/>
  </g>
  
  <!-- 漂浮的心形 -->
  <g>
    <path d="M 200 300 C 200 295, 190 295, 190 300 C 190 295, 180 295, 180 300 C 180 310, 200 320, 200 320 C 200 320, 220 310, 220 300 C 220 295, 210 295, 210 300 C 210 295, 200 295, 200 300 Z" fill="#FF1493" opacity="0.5"/>
    
    <path d="M 120 380 C 120 376, 112 376, 112 380 C 112 376, 104 376, 104 380 C 104 388, 120 396, 120 396 C 120 396, 136 388, 136 380 C 136 376, 128 376, 128 380 C 128 376, 120 376, 120 380 Z" fill="#FF69B4" opacity="0.4"/>
  </g>
  
  <!-- 彩虹 -->
  <g transform="translate(200, 250)" opacity="0.7">
    <path d="M -80 0 Q 0 -40 80 0" fill="none" stroke="#FF0000" stroke-width="3"/>
    <path d="M -75 5 Q 0 -35 75 5" fill="none" stroke="#FF7F00" stroke-width="3"/>
    <path d="M -70 10 Q 0 -30 70 10" fill="none" stroke="#FFFF00" stroke-width="3"/>
    <path d="M -65 15 Q 0 -25 65 15" fill="none" stroke="#00FF00" stroke-width="3"/>
    <path d="M -60 20 Q 0 -20 60 20" fill="none" stroke="#0000FF" stroke-width="3"/>
    <path d="M -55 25 Q 0 -15 55 25" fill="none" stroke="#4B0082" stroke-width="3"/>
    <path d="M -50 30 Q 0 -10 50 30" fill="none" stroke="#9400D3" stroke-width="3"/>
    

  </g>
  
  <!-- 漂浮的花朵 -->
  <g>
    <g transform="translate(80, 350)">
      <circle cx="0" cy="0" r="4" fill="#FF69B4"/>
      <circle cx="-6" cy="-3" r="3" fill="#FFB6C1"/>
      <circle cx="6" cy="-3" r="3" fill="#FFB6C1"/>
      <circle cx="-4" cy="5" r="3" fill="#FFB6C1"/>
      <circle cx="4" cy="5" r="3" fill="#FFB6C1"/>
      <circle cx="0" cy="0" r="2" fill="#FFD700"/>

    </g>
    
    <g transform="translate(320, 380)">
      <circle cx="0" cy="0" r="3" fill="#FF1493"/>
      <circle cx="-4" cy="-2" r="2.5" fill="#FF69B4"/>
      <circle cx="4" cy="-2" r="2.5" fill="#FF69B4"/>
      <circle cx="-3" cy="4" r="2.5" fill="#FF69B4"/>
      <circle cx="3" cy="4" r="2.5" fill="#FF69B4"/>
      <circle cx="0" cy="0" r="1.5" fill="#FFD700"/>

    </g>
  </g>
  
  <!-- 底部装饰草地 -->
  <g transform="translate(0, 550)">
    <ellipse cx="50" cy="0" rx="30" ry="8" fill="#90EE90" opacity="0.6"/>
    <ellipse cx="150" cy="0" rx="40" ry="10" fill="#98FB98" opacity="0.6"/>
    <ellipse cx="250" cy="0" rx="35" ry="9" fill="#90EE90" opacity="0.6"/>
    <ellipse cx="350" cy="0" rx="30" ry="8" fill="#98FB98" opacity="0.6"/>
  </g>
</svg>